<svg xmlns="http://www.w3.org/2000/svg" viewBox="0 0 230 80"><rect width="230" height="80" fill="#ffffff"/><path fill="#000000" d="M20 0h2v80h-2zM24 0h2v80h-2zM32 0h4v80h-4zM38 0h2v80h-2zM42 0h2v80h-2zM48 0h6v80h-6zM56 0h2v80h-2zM60 0h8v80h-8zM70 0h8v80h-8zM80 0h2v80h-2zM88 0h2v80h-2zM94 0h2v80h-2zM98 0h4v80h-4zM106 0h4v80h-4zM112 0h2v80h-2zM116 0h2v80h-2zM120 0h2v80h-2zM130 0h2v80h-2zM134 0h2v80h-2zM144 0h2v80h-2zM148 0h2v80h-2zM158 0h2v80h-2zM162 0h6v80h-6zM170 0h2v80h-2zM176 0h2v80h-2zM186 0h2v80h-2zM190 0h4v80h-4zM198 0h4v80h-4zM204 0h2v80h-2zM208 0h2v80h-2z"/></svg>