<svg xmlns="http://www.w3.org/2000/svg" viewBox="0 0 338 80"><rect width="338" height="80" fill="#ffffff"/><path fill="#000000" d="M20 0h2v80h-2zM24 0h2v80h-2zM30 0h2v80h-2zM36 0h4v80h-4zM42 0h8v80h-8zM52 0h2v80h-2zM58 0h6v80h-6zM66 0h2v80h-2zM70 0h4v80h-4zM80 0h2v80h-2zM90 0h2v80h-2zM94 0h2v80h-2zM100 0h2v80h-2zM108 0h2v80h-2zM112 0h2v80h-2zM116 0h2v80h-2zM120 0h2v80h-2zM126 0h2v80h-2zM134 0h6v80h-6zM142 0h2v80h-2zM148 0h6v80h-6zM158 0h2v80h-2zM162 0h4v80h-4zM170 0h4v80h-4zM176 0h4v80h-4zM182 0h4v80h-4zM190 0h2v80h-2zM196 0h2v80h-2zM204 0h2v80h-2zM208 0h2v80h-2zM224 0h2v80h-2zM228 0h4v80h-4zM234 0h4v80h-4zM244 0h2v80h-2zM248 0h2v80h-2zM254 0h4v80h-4zM262 0h2v80h-2zM266 0h2v80h-2zM272 0h4v80h-4zM278 0h4v80h-4zM284 0h2v80h-2zM288 0h8v80h-8zM298 0h2v80h-2zM302 0h2v80h-2zM308 0h6v80h-6zM316 0h2v80h-2z"/></svg>