<svg xmlns="http://www.w3.org/2000/svg" viewBox="0 0 338 80"><rect width="338" height="80" fill="#ffffff"/><path fill="#000000" d="M20 0h2v80h-2zM24 0h2v80h-2zM30 0h4v80h-4zM38 0h2v80h-2zM44 0h2v80h-2zM50 0h4v80h-4zM56 0h8v80h-8zM66 0h2v80h-2zM70 0h2v80h-2zM78 0h4v80h-4zM84 0h4v80h-4zM94 0h2v80h-2zM98 0h2v80h-2zM102 0h8v80h-8zM112 0h2v80h-2zM116 0h2v80h-2zM120 0h2v80h-2zM128 0h2v80h-2zM134 0h2v80h-2zM140 0h2v80h-2zM148 0h6v80h-6zM156 0h2v80h-2zM162 0h6v80h-6zM172 0h2v80h-2zM176 0h4v80h-4zM184 0h4v80h-4zM190 0h4v80h-4zM196 0h4v80h-4zM204 0h2v80h-2zM208 0h2v80h-2zM224 0h2v80h-2zM228 0h4v80h-4zM234 0h4v80h-4zM244 0h2v80h-2zM248 0h2v80h-2zM254 0h4v80h-4zM262 0h2v80h-2zM266 0h2v80h-2zM272 0h4v80h-4zM278 0h4v80h-4zM284 0h2v80h-2zM288 0h8v80h-8zM298 0h2v80h-2zM302 0h2v80h-2zM308 0h6v80h-6zM316 0h2v80h-2z"/></svg>