<svg xmlns="http://www.w3.org/2000/svg" viewBox="0 0 21 21"><rect width="21" height="21" fill="#ffffff"/><path fill="#000000" d="M0 0h7v1h-7zM8 0h1v1h-1zM10 0h3v1h-3zM14 0h7v1h-7zM0 1h1v1h-1zM6 1h1v1h-1zM10 1h2v1h-2zM14 1h1v1h-1zM20 1h1v1h-1zM0 2h1v1h-1zM2 2h3v1h-3zM6 2h1v1h-1zM8 2h2v1h-2zM11 2h1v1h-1zM14 2h1v1h-1zM16 2h3v1h-3zM20 2h1v1h-1zM0 3h1v1h-1zM2 3h3v1h-3zM6 3h1v1h-1zM8 3h2v1h-2zM12 3h1v1h-1zM14 3h1v1h-1zM16 3h3v1h-3zM20 3h1v1h-1zM0 4h1v1h-1zM2 4h3v1h-3zM6 4h1v1h-1zM8 4h1v1h-1zM11 4h1v1h-1zM14 4h1v1h-1zM16 4h3v1h-3zM20 4h1v1h-1zM0 5h1v1h-1zM6 5h1v1h-1zM9 5h4v1h-4zM14 5h1v1h-1zM20 5h1v1h-1zM0 6h7v1h-7zM8 6h1v1h-1zM10 6h1v1h-1zM12 6h1v1h-1zM14 6h7v1h-7zM11 7h2v1h-2zM0 8h4v1h-4zM6 8h1v1h-1zM8 8h6v1h-6zM16 8h3v1h-3zM20 8h1v1h-1zM0 9h2v1h-2zM5 9h1v1h-1zM9 9h6v1h-6zM19 9h2v1h-2zM2 10h6v1h-6zM9 10h3v1h-3zM17 10h2v1h-2zM0 11h1v1h-1zM2 11h1v1h-1zM4 11h1v1h-1zM9 11h1v1h-1zM11 11h1v1h-1zM14 11h3v1h-3zM18 11h1v1h-1zM20 11h1v1h-1zM2 12h3v1h-3zM6 12h2v1h-2zM10 12h1v1h-1zM12 12h1v1h-1zM15 12h1v1h-1zM18 12h2v1h-2zM8 13h2v1h-2zM11 13h1v1h-1zM14 13h1v1h-1zM17 13h2v1h-2zM0 14h7v1h-7zM9 14h4v1h-4zM15 14h1v1h-1zM18 14h1v1h-1zM20 14h1v1h-1zM0 15h1v1h-1zM6 15h1v1h-1zM9 15h2v1h-2zM15 15h2v1h-2zM18 15h3v1h-3zM0 16h1v1h-1zM2 16h3v1h-3zM6 16h1v1h-1zM9 16h2v1h-2zM12 16h6v1h-6zM20 16h1v1h-1zM0 17h1v1h-1zM2 17h3v1h-3zM6 17h1v1h-1zM8 17h1v1h-1zM10 17h2v1h-2zM14 17h6v1h-6zM0 18h1v1h-1zM2 18h3v1h-3zM6 18h1v1h-1zM8 18h2v1h-2zM12 18h1v1h-1zM14 18h2v1h-2zM0 19h1v1h-1zM6 19h1v1h-1zM8 19h3v1h-3zM13 19h1v1h-1zM15 19h1v1h-1zM18 19h1v1h-1zM20 19h1v1h-1zM0 20h7v1h-7zM8 20h1v1h-1zM13 20h1v1h-1zM16 20h1v1h-1z"/></svg>