<svg xmlns="http://www.w3.org/2000/svg" viewBox="0 0 13 13"><rect width="13" height="13" fill="#ffffff"/><path fill="#000000" d="M0 0h7v1h-7zM8 0h1v1h-1zM10 0h1v1h-1zM12 0h1v1h-1zM0 1h1v1h-1zM6 1h1v1h-1zM8 1h2v1h-2zM0 2h1v1h-1zM2 2h3v1h-3zM6 2h1v1h-1zM9 2h4v1h-4zM0 3h1v1h-1zM2 3h3v1h-3zM6 3h1v1h-1zM9 3h2v1h-2zM12 3h1v1h-1zM0 4h1v1h-1zM2 4h3v1h-3zM6 4h1v1h-1zM8 4h1v1h-1zM11 4h1v1h-1zM0 5h1v1h-1zM6 5h1v1h-1zM9 5h1v1h-1zM12 5h1v1h-1zM0 6h7v1h-7zM8 6h5v1h-5zM9 7h1v1h-1zM0 8h3v1h-3zM4 8h1v1h-1zM8 8h1v1h-1zM11 8h2v1h-2zM1 9h1v1h-1zM3 9h3v1h-3zM7 9h6v1h-6zM0 10h1v1h-1zM2 10h1v1h-1zM4 10h1v1h-1zM6 10h1v1h-1zM11 10h2v1h-2zM1 11h1v1h-1zM3 11h1v1h-1zM5 11h1v1h-1zM7 11h1v1h-1zM9 11h3v1h-3zM0 12h3v1h-3zM5 12h1v1h-1zM9 12h3v1h-3z"/></svg>