<svg xmlns="http://www.w3.org/2000/svg" viewBox="0 0 17 17"><rect width="17" height="17" fill="#ffffff"/><path fill="#000000" d="M0 0h7v1h-7zM8 0h1v1h-1zM10 0h1v1h-1zM12 0h1v1h-1zM14 0h1v1h-1zM16 0h1v1h-1zM0 1h1v1h-1zM6 1h1v1h-1zM8 1h1v1h-1zM10 1h1v1h-1zM16 1h1v1h-1zM0 2h1v1h-1zM2 2h3v1h-3zM6 2h1v1h-1zM8 2h1v1h-1zM13 2h1v1h-1zM16 2h1v1h-1zM0 3h1v1h-1zM2 3h3v1h-3zM6 3h1v1h-1zM11 3h2v1h-2zM14 3h1v1h-1zM0 4h1v1h-1zM2 4h3v1h-3zM6 4h1v1h-1zM9 4h5v1h-5zM16 4h1v1h-1zM0 5h1v1h-1zM6 5h1v1h-1zM9 5h4v1h-4zM16 5h1v1h-1zM0 6h7v1h-7zM8 6h3v1h-3zM12 6h3v1h-3zM8 7h1v1h-1zM10 7h1v1h-1zM12 7h2v1h-2zM16 7h1v1h-1zM0 8h1v1h-1zM2 8h2v1h-2zM5 8h1v1h-1zM8 8h1v1h-1zM11 8h1v1h-1zM13 8h2v1h-2zM16 8h1v1h-1zM3 9h2v1h-2zM7 9h2v1h-2zM15 9h2v1h-2zM0 10h5v1h-5zM6 10h1v1h-1zM8 10h3v1h-3zM13 10h2v1h-2zM1 11h1v1h-1zM3 11h1v1h-1zM5 11h3v1h-3zM10 11h1v1h-1zM12 11h1v1h-1zM0 12h1v1h-1zM5 12h1v1h-1zM7 12h1v1h-1zM9 12h2v1h-2zM13 12h3v1h-3zM1 13h1v1h-1zM4 13h1v1h-1zM7 13h5v1h-5zM13 13h3v1h-3zM0 14h1v1h-1zM4 14h4v1h-4zM9 14h1v1h-1zM11 14h3v1h-3zM16 14h1v1h-1zM2 15h1v1h-1zM5 15h4v1h-4zM11 15h1v1h-1zM13 15h2v1h-2zM0 16h1v1h-1zM2 16h1v1h-1zM5 16h2v1h-2zM8 16h9v1h-9z"/></svg>