<svg xmlns="http://www.w3.org/2000/svg" viewBox="0 0 21 21"><rect width="21" height="21" fill="#ffffff"/><path fill="#000000" d="M0 0h7v1h-7zM9 0h1v1h-1zM11 0h2v1h-2zM14 0h7v1h-7zM0 1h1v1h-1zM6 1h1v1h-1zM9 1h3v1h-3zM14 1h1v1h-1zM20 1h1v1h-1zM0 2h1v1h-1zM2 2h3v1h-3zM6 2h1v1h-1zM8 2h2v1h-2zM11 2h2v1h-2zM14 2h1v1h-1zM16 2h3v1h-3zM20 2h1v1h-1zM0 3h1v1h-1zM2 3h3v1h-3zM6 3h1v1h-1zM9 3h1v1h-1zM11 3h1v1h-1zM14 3h1v1h-1zM16 3h3v1h-3zM20 3h1v1h-1zM0 4h1v1h-1zM2 4h3v1h-3zM6 4h1v1h-1zM10 4h1v1h-1zM12 4h1v1h-1zM14 4h1v1h-1zM16 4h3v1h-3zM20 4h1v1h-1zM0 5h1v1h-1zM6 5h1v1h-1zM12 5h1v1h-1zM14 5h1v1h-1zM20 5h1v1h-1zM0 6h7v1h-7zM8 6h1v1h-1zM10 6h1v1h-1zM12 6h1v1h-1zM14 6h7v1h-7zM8 7h2v1h-2zM11 7h2v1h-2zM0 8h3v1h-3zM4 8h8v1h-8zM13 8h2v1h-2zM18 8h1v1h-1zM1 9h3v1h-3zM8 9h2v1h-2zM14 9h1v1h-1zM17 9h3v1h-3zM0 10h2v1h-2zM3 10h1v1h-1zM5 10h2v1h-2zM8 10h1v1h-1zM10 10h1v1h-1zM12 10h1v1h-1zM16 10h1v1h-1zM18 10h1v1h-1zM20 10h1v1h-1zM1 11h2v1h-2zM7 11h4v1h-4zM14 11h1v1h-1zM19 11h1v1h-1zM1 12h1v1h-1zM5 12h3v1h-3zM12 12h1v1h-1zM14 12h1v1h-1zM16 12h1v1h-1zM19 12h1v1h-1zM8 13h1v1h-1zM10 13h2v1h-2zM13 13h1v1h-1zM15 13h1v1h-1zM17 13h1v1h-1zM19 13h1v1h-1zM0 14h7v1h-7zM8 14h4v1h-4zM13 14h3v1h-3zM18 14h1v1h-1zM20 14h1v1h-1zM0 15h1v1h-1zM6 15h1v1h-1zM8 15h6v1h-6zM15 15h2v1h-2zM18 15h1v1h-1zM20 15h1v1h-1zM0 16h1v1h-1zM2 16h3v1h-3zM6 16h1v1h-1zM8 16h4v1h-4zM13 16h3v1h-3zM18 16h1v1h-1zM20 16h1v1h-1zM0 17h1v1h-1zM2 17h3v1h-3zM6 17h1v1h-1zM9 17h2v1h-2zM14 17h2v1h-2zM17 17h1v1h-1zM19 17h1v1h-1zM0 18h1v1h-1zM2 18h3v1h-3zM6 18h1v1h-1zM8 18h2v1h-2zM12 18h1v1h-1zM16 18h2v1h-2zM20 18h1v1h-1zM0 19h1v1h-1zM6 19h1v1h-1zM8 19h1v1h-1zM10 19h1v1h-1zM14 19h4v1h-4zM19 19h1v1h-1zM0 20h7v1h-7zM8 20h2v1h-2zM12 20h1v1h-1zM14 20h1v1h-1zM18 20h1v1h-1z"/></svg>