<svg xmlns="http://www.w3.org/2000/svg" viewBox="0 0 17 17"><rect width="17" height="17" fill="#ffffff"/><path fill="#000000" d="M0 0h7v1h-7zM8 0h1v1h-1zM10 0h1v1h-1zM12 0h1v1h-1zM14 0h1v1h-1zM16 0h1v1h-1zM0 1h1v1h-1zM6 1h1v1h-1zM13 1h1v1h-1zM0 2h1v1h-1zM2 2h3v1h-3zM6 2h1v1h-1zM8 2h2v1h-2zM12 2h2v1h-2zM0 3h1v1h-1zM2 3h3v1h-3zM6 3h1v1h-1zM8 3h1v1h-1zM12 3h3v1h-3zM16 3h1v1h-1zM0 4h1v1h-1zM2 4h3v1h-3zM6 4h1v1h-1zM10 4h1v1h-1zM12 4h3v1h-3zM16 4h1v1h-1zM0 5h1v1h-1zM6 5h1v1h-1zM8 5h1v1h-1zM13 5h1v1h-1zM15 5h1v1h-1zM0 6h7v1h-7zM9 6h2v1h-2zM13 6h1v1h-1zM16 6h1v1h-1zM8 7h1v1h-1zM12 7h3v1h-3zM16 7h1v1h-1zM0 8h1v1h-1zM3 8h1v1h-1zM5 8h3v1h-3zM9 8h2v1h-2zM12 8h1v1h-1zM16 8h1v1h-1zM1 9h5v1h-5zM12 9h1v1h-1zM0 10h2v1h-2zM4 10h4v1h-4zM9 10h5v1h-5zM15 10h1v1h-1zM1 11h1v1h-1zM5 11h1v1h-1zM7 11h2v1h-2zM11 11h2v1h-2zM0 12h4v1h-4zM5 12h1v1h-1zM7 12h1v1h-1zM9 12h2v1h-2zM12 12h3v1h-3zM16 12h1v1h-1zM5 13h9v1h-9zM0 14h3v1h-3zM6 14h4v1h-4zM14 14h1v1h-1zM2 15h1v1h-1zM6 15h1v1h-1zM8 15h3v1h-3zM12 15h2v1h-2zM0 16h3v1h-3zM4 16h1v1h-1zM7 16h1v1h-1zM9 16h2v1h-2zM12 16h1v1h-1zM16 16h1v1h-1z"/></svg>