<svg xmlns="http://www.w3.org/2000/svg" viewBox="0 0 21 21"><rect width="21" height="21" fill="#ffffff"/><path fill="#000000" d="M0 0h7v1h-7zM10 0h1v1h-1zM12 0h1v1h-1zM14 0h7v1h-7zM0 1h1v1h-1zM6 1h1v1h-1zM8 1h3v1h-3zM14 1h1v1h-1zM20 1h1v1h-1zM0 2h1v1h-1zM2 2h3v1h-3zM6 2h1v1h-1zM10 2h1v1h-1zM12 2h1v1h-1zM14 2h1v1h-1zM16 2h3v1h-3zM20 2h1v1h-1zM0 3h1v1h-1zM2 3h3v1h-3zM6 3h1v1h-1zM10 3h1v1h-1zM12 3h1v1h-1zM14 3h1v1h-1zM16 3h3v1h-3zM20 3h1v1h-1zM0 4h1v1h-1zM2 4h3v1h-3zM6 4h1v1h-1zM8 4h1v1h-1zM10 4h3v1h-3zM14 4h1v1h-1zM16 4h3v1h-3zM20 4h1v1h-1zM0 5h1v1h-1zM6 5h1v1h-1zM9 5h3v1h-3zM14 5h1v1h-1zM20 5h1v1h-1zM0 6h7v1h-7zM8 6h1v1h-1zM10 6h1v1h-1zM12 6h1v1h-1zM14 6h7v1h-7zM0 8h1v1h-1zM2 8h1v1h-1zM4 8h1v1h-1zM6 8h1v1h-1zM9 8h1v1h-1zM12 8h1v1h-1zM16 8h1v1h-1zM19 8h1v1h-1zM1 9h4v1h-4zM8 9h1v1h-1zM11 9h1v1h-1zM16 9h1v1h-1zM20 9h1v1h-1zM3 10h7v1h-7zM11 10h1v1h-1zM14 10h1v1h-1zM16 10h2v1h-2zM0 11h4v1h-4zM5 11h1v1h-1zM7 11h2v1h-2zM11 11h3v1h-3zM15 11h1v1h-1zM17 11h3v1h-3zM1 12h1v1h-1zM4 12h4v1h-4zM9 12h1v1h-1zM11 12h1v1h-1zM14 12h3v1h-3zM18 12h1v1h-1zM20 12h1v1h-1zM8 13h1v1h-1zM10 13h1v1h-1zM14 13h1v1h-1zM18 13h1v1h-1zM20 13h1v1h-1zM0 14h7v1h-7zM12 14h1v1h-1zM15 14h1v1h-1zM17 14h2v1h-2zM0 15h1v1h-1zM6 15h1v1h-1zM9 15h2v1h-2zM14 15h2v1h-2zM17 15h1v1h-1zM0 16h1v1h-1zM2 16h3v1h-3zM6 16h1v1h-1zM8 16h2v1h-2zM12 16h1v1h-1zM14 16h7v1h-7zM0 17h1v1h-1zM2 17h3v1h-3zM6 17h1v1h-1zM10 17h2v1h-2zM13 17h1v1h-1zM15 17h1v1h-1zM19 17h1v1h-1zM0 18h1v1h-1zM2 18h3v1h-3zM6 18h1v1h-1zM8 18h4v1h-4zM13 18h3v1h-3zM17 18h1v1h-1zM20 18h1v1h-1zM0 19h1v1h-1zM6 19h1v1h-1zM11 19h3v1h-3zM17 19h1v1h-1zM19 19h2v1h-2zM0 20h7v1h-7zM8 20h2v1h-2zM11 20h1v1h-1zM13 20h3v1h-3zM20 20h1v1h-1z"/></svg>