<svg xmlns="http://www.w3.org/2000/svg" viewBox="0 0 35 19"><rect width="35" height="19" fill="#ffffff"/><path fill="#000000" d="M4 4h7v1h-7zM12 4h1v1h-1zM14 4h1v1h-1zM16 4h1v1h-1zM18 4h1v1h-1zM20 4h1v1h-1zM22 4h1v1h-1zM24 4h1v1h-1zM26 4h1v1h-1zM28 4h3v1h-3zM4 5h1v1h-1zM10 5h1v1h-1zM12 5h3v1h-3zM16 5h1v1h-1zM18 5h2v1h-2zM24 5h1v1h-1zM26 5h1v1h-1zM28 5h3v1h-3zM4 6h1v1h-1zM6 6h3v1h-3zM10 6h1v1h-1zM13 6h4v1h-4zM19 6h2v1h-2zM23 6h1v1h-1zM25 6h1v1h-1zM29 6h2v1h-2zM4 7h1v1h-1zM6 7h3v1h-3zM10 7h1v1h-1zM14 7h1v1h-1zM16 7h2v1h-2zM20 7h4v1h-4zM25 7h3v1h-3zM4 8h1v1h-1zM6 8h3v1h-3zM10 8h1v1h-1zM15 8h1v1h-1zM18 8h1v1h-1zM22 8h2v1h-2zM26 8h3v1h-3zM30 8h1v1h-1zM4 9h1v1h-1zM10 9h1v1h-1zM13 9h2v1h-2zM16 9h4v1h-4zM21 9h2v1h-2zM24 9h3v1h-3zM28 9h2v1h-2zM4 10h7v1h-7zM12 10h3v1h-3zM16 10h2v1h-2zM19 10h1v1h-1zM21 10h1v1h-1zM25 10h2v1h-2zM28 10h1v1h-1zM30 10h1v1h-1zM12 11h1v1h-1zM15 11h1v1h-1zM17 11h3v1h-3zM24 11h1v1h-1zM26 11h1v1h-1zM30 11h1v1h-1zM4 12h10v1h-10zM15 12h1v1h-1zM17 12h1v1h-1zM20 12h2v1h-2zM23 12h1v1h-1zM25 12h2v1h-2zM28 12h1v1h-1zM30 12h1v1h-1zM4 13h4v1h-4zM9 13h1v1h-1zM13 13h4v1h-4zM18 13h1v1h-1zM22 13h1v1h-1zM24 13h1v1h-1zM26 13h1v1h-1zM30 13h1v1h-1zM4 14h3v1h-3zM8 14h1v1h-1zM10 14h1v1h-1zM12 14h1v1h-1zM14 14h1v1h-1zM16 14h1v1h-1zM18 14h1v1h-1zM20 14h1v1h-1zM22 14h1v1h-1zM24 14h1v1h-1zM26 14h1v1h-1zM28 14h1v1h-1zM30 14h1v1h-1z"/></svg>