<svg xmlns="http://www.w3.org/2000/svg" viewBox="0 0 376 80"><rect width="376" height="80" fill="#ffffff"/><path fill="#000000" d="M20 0h2v80h-2zM26 0h2v80h-2zM30 0h4v80h-4zM36 0h4v80h-4zM42 0h2v80h-2zM46 0h4v80h-4zM52 0h2v80h-2zM56 0h2v80h-2zM62 0h2v80h-2zM66 0h4v80h-4zM72 0h2v80h-2zM76 0h4v80h-4zM82 0h2v80h-2zM88 0h2v80h-2zM92 0h4v80h-4zM98 0h4v80h-4zM104 0h4v80h-4zM110 0h2v80h-2zM116 0h2v80h-2zM120 0h2v80h-2zM124 0h2v80h-2zM130 0h2v80h-2zM134 0h2v80h-2zM138 0h4v80h-4zM144 0h4v80h-4zM150 0h4v80h-4zM156 0h2v80h-2zM162 0h2v80h-2zM166 0h2v80h-2zM170 0h4v80h-4zM176 0h2v80h-2zM180 0h4v80h-4zM188 0h2v80h-2zM192 0h2v80h-2zM196 0h4v80h-4zM202 0h4v80h-4zM208 0h4v80h-4zM216 0h2v80h-2zM220 0h2v80h-2zM224 0h2v80h-2zM228 0h2v80h-2zM234 0h2v80h-2zM240 0h2v80h-2zM244 0h2v80h-2zM250 0h2v80h-2zM254 0h2v80h-2zM260 0h2v80h-2zM264 0h2v80h-2zM270 0h2v80h-2zM276 0h2v80h-2zM280 0h2v80h-2zM284 0h2v80h-2zM290 0h2v80h-2zM296 0h2v80h-2zM302 0h2v80h-2zM306 0h2v80h-2zM310 0h2v80h-2zM314 0h2v80h-2zM318 0h4v80h-4zM326 0h4v80h-4zM332 0h2v80h-2zM338 0h2v80h-2zM342 0h4v80h-4zM348 0h4v80h-4zM354 0h2v80h-2z"/></svg>